<svg xmlns="http://www.w3.org/2000/svg" width="39.4" height="32.5"><g stroke-miterlimit="10"><path d="M25.3 3.2l-.1.3c-.3.4-.7.7-1.2.9-1.2.7-2.7 1.2-3 2 0 .5 1.3-.2 1.9-.3 1.2-.2 2.6-.4 3.8-.8 2.4-.9 3.2-1.5 5.4 0 1.2.8 4.2-2.8 6-1.4 1.2.9 1.4 2.4.7 3.5l-1 1.5c-.3.3-1.2.7-.9.8 2.4.6 3.1 2 2 4.4-.6 1.2-1.5 2.1-2.3 3.1l-1 1.3c-.3.3-1.3 1-.9 1 8.4-3 3.5 6 .2 8.8-.8.7-4.4 2.7-5.5 2.6-.7 0-1.7-.6-2-1-.3-.3 0-1.2-.5-1.1-2 .5-4.3 3.6-6.2 3.7-1.5 0-5.1-2.1-5.5-3.6 0-.4 1.1-2.5 1.1-2.5-.1-.1-.2.4-.4.5-1.5.9-3.2-.3-3.6-1.8-.3-1.3 1.1-2.6 2-3.3.6-.4 2.1-1.5 1.5-1.3-2.5.6-8 6.3-10.3 2.8-1.7-2.6 3.6-4.7 5-5.7.6-.3-.3-1-.2-1.6.1-.6.8-1.2 1.3-1.5l.7-.5c-2 .3-6 1.5-7.8 2.9-.3.2-2.1 1.7-2.8 1.4-7-4 9.3-11.2 12.2-13l3.4-2c1-.5 5-3.5 5.7-3.3h.3c1.2 0 2.2 1 2.2 2.3 0 .2 0 .5-.2.9z" fill="#fa3"/><path d="M30.5 25.2c-.6 2.1-9.2 4.8-13.8 2a8.1 8.1 0 0 1-3.7-8.7M31.9 18.6c2-1.6 4.5.3 3.2 2.6-.8 1.4-2.9 2.1-4 3.2M11.9 17.7C7.9 14.8 14 1.8 23 7M24 6.7c2.7-1.6 8.1 0 9.5 2.5 1.1 2.1 3.8 7 1.3 8M22 17.2c-1.7 0-2-1.6-2.5-2.7M26.2 16.8c-1-.7-1.6-1.5-2.1-2.5M30.5 16.4c-1.1 0-1.6-.4-2.5-1.1M34 16.1c-1-.2-2-.4-2.7-1" fill="none" stroke="#38f" stroke-width=".8" stroke-linecap="round"/><path d="M17.6 19.8a.7.7 0 1 1 1.4 0 .7.7 0 0 1-1.4 0zM23 19.8a.7.7 0 1 1 1.5 0 .7.7 0 0 1-1.4 0z" fill="#38f"/><path d="M23.8 22.5c-1.4 2-4 2.7-5.1.1M16.8 17.4c-1.4-1.2-1.2-2.4-1.2-4M23.4 5.9c.2-.6.2-3.7 2-3 2 .8-1.2 2.6-2.2 3z" fill="none" stroke="#38f" stroke-width=".8" stroke-linecap="round"/></g></svg>